<svg version="1.1" id="Layer_1" xmlns="http://www.w3.org/2000/svg" xmlns:xlink="http://www.w3.org/1999/xlink" x="0px" y="0px"
	 width="100%" viewBox="0 0 1024 1024" enable-background="new 0 0 1024 1024" xml:space="preserve">
<path fill="#102522" opacity="1.000000" stroke="none" 
	d="
M947.000000,1025.000000 
	C631.333313,1025.000000 316.166656,1025.000000 1.000000,1025.000000 
	C1.000000,683.666687 1.000000,342.333344 1.000000,1.000000 
	C342.333344,1.000000 683.666687,1.000000 1025.000000,1.000000 
	C1025.000000,342.333344 1025.000000,683.666687 1025.000000,1025.000000 
	C999.166687,1025.000000 973.333313,1025.000000 947.000000,1025.000000 
M553.096619,550.936218 
	C533.620605,559.133301 512.647339,549.691223 509.177124,530.622925 
	C511.031677,530.622925 512.803711,530.622803 514.575684,530.622864 
	C536.737793,530.623352 558.900269,530.553650 581.061584,530.688416 
	C585.083435,530.712830 586.776672,529.295654 586.991943,525.269714 
	C588.665283,493.977020 561.572510,469.662231 530.740662,474.881012 
	C510.431946,478.318542 494.177612,494.659668 491.145233,514.687805 
	C487.669952,537.641052 497.111816,556.858032 516.758972,566.819336 
	C535.080261,576.108398 558.647461,572.561829 573.046570,557.522583 
	C583.342407,546.768982 582.601562,547.478943 570.192017,541.113037 
	C567.330383,539.645020 565.505188,540.303284 563.302490,542.639832 
	C560.484375,545.629150 556.986145,547.977356 553.096619,550.936218 
M723.862732,560.629089 
	C744.810364,576.490906 765.876404,575.305115 787.021179,560.988037 
	C788.487000,570.757385 788.487000,570.757263 798.647766,570.689331 
	C799.147400,570.686035 799.647339,570.676819 800.146545,570.691162 
	C804.094666,570.804077 805.805054,569.078796 805.720703,564.952148 
	C805.492920,553.799377 805.681458,542.638062 805.457581,531.485168 
	C805.330994,525.178223 805.449890,518.730225 804.189636,512.606873 
	C799.932983,491.925079 782.432678,476.503601 761.454712,474.218384 
	C740.624207,471.949249 720.606445,483.565247 711.724304,503.076233 
	C702.697815,522.904358 707.259033,545.326721 723.862732,560.629089 
M602.534729,504.026550 
	C601.600708,507.721100 599.977417,511.392822 599.854248,515.114197 
	C599.369812,529.753296 599.305725,544.407593 599.184937,559.057068 
	C599.076172,572.247192 597.661133,570.670105 610.856506,570.778870 
	C616.722351,570.827271 617.502991,570.035400 617.483398,564.190552 
	C617.438782,550.863831 617.042419,537.526489 617.473083,524.215576 
	C617.651489,518.701111 618.604736,512.788025 620.907654,507.850128 
	C626.501099,495.856934 639.353577,490.069183 652.107605,492.693481 
	C665.216064,495.390778 675.392822,506.190002 675.989746,519.308838 
	C676.587341,532.443176 676.305237,545.621155 676.268799,558.779663 
	C676.230042,572.779297 675.913696,570.535278 688.435120,570.847900 
	C692.586426,570.951599 694.487122,569.519836 694.418640,565.049561 
	C694.206787,551.225464 694.350525,537.396301 694.245361,523.569946 
	C694.218811,520.083618 694.106323,516.539734 693.474243,513.125854 
	C689.630310,492.365417 672.920898,476.883209 651.868774,474.366211 
	C631.443542,471.924194 612.265564,483.262146 602.534729,504.026550 
M405.534149,544.083130 
	C406.881989,537.112244 409.030090,530.183411 409.399017,523.161072 
	C410.027161,511.203918 409.413391,499.186554 409.549591,487.197083 
	C409.696564,474.258179 411.793030,475.539459 397.010223,475.191559 
	C392.945251,475.095947 391.460144,476.773010 391.527313,480.887299 
	C391.744781,494.207947 391.740845,507.534241 391.634857,520.856873 
	C391.603302,524.828674 391.483063,528.932251 390.495972,532.740173 
	C386.936920,546.470093 373.473938,555.441528 359.395508,553.869568 
	C345.518646,552.320129 334.595673,540.897095 334.122772,526.671326 
	C333.691345,513.693237 333.893616,500.693237 333.869598,487.702789 
	C333.844299,474.022491 335.558167,475.125000 320.727356,475.219879 
	C317.010925,475.243652 315.446808,476.666656 315.522003,480.666779 
	C315.778809,494.319092 315.630615,507.978485 315.775146,521.633728 
	C315.820770,525.945190 315.785370,530.360840 316.668213,534.542786 
	C320.957245,554.859253 337.140289,569.023560 358.562286,571.606079 
	C377.673309,573.910034 396.129120,563.282227 405.534149,544.083130 
M488.729401,480.123993 
	C488.998657,475.084290 484.591370,475.901520 482.027740,475.357971 
	C451.927063,468.975739 425.041840,489.819275 423.918823,520.573547 
	C423.402435,534.714661 423.805786,548.887695 423.662628,563.044922 
	C423.589844,570.242615 423.960724,570.761414 431.125641,570.775085 
	C432.124908,570.776978 433.124176,570.783508 434.123444,570.788757 
	C441.567383,570.827942 441.844940,570.394165 441.730103,562.741272 
	C441.530182,549.416809 441.296875,536.086792 441.471313,522.764221 
	C441.703217,505.050171 455.223846,490.461456 471.503540,492.598297 
	C480.251465,493.746552 483.357147,490.551697 486.252655,484.163116 
	C486.797852,482.960175 487.631134,481.887787 488.729401,480.123993 
M821.097046,486.612427 
	C821.095276,490.445740 821.095642,494.279083 821.091431,498.112396 
	C821.067383,520.278687 821.109619,542.445374 820.961060,564.610840 
	C820.931213,569.065247 822.473022,570.942200 827.075806,570.852539 
	C839.422180,570.611938 839.628418,572.721436 839.480774,558.461548 
	C839.221985,533.464111 839.382019,508.462463 839.131836,483.464905 
	C839.107178,480.997375 837.689087,476.575317 836.514771,476.435089 
	C831.904297,475.884521 827.117310,476.562927 822.440063,477.141998 
	C821.863037,477.213440 821.340515,479.403168 821.169983,480.662415 
	C820.948242,482.299927 821.104248,483.988525 821.097046,486.612427 
M263.486877,461.867462 
	C261.944763,455.675079 258.059967,453.318329 251.737167,454.167633 
	C248.467499,454.606842 245.062744,453.991119 241.772186,454.345490 
	C240.234314,454.511169 238.056870,455.482056 237.470901,456.709412 
	C230.902420,470.467163 224.587830,484.346130 218.204208,498.194061 
	C218.805969,498.667328 219.171799,499.203369 219.572556,499.230865 
	C222.718201,499.446716 225.871857,499.714355 229.020538,499.686157 
	C239.131439,499.595673 237.670822,501.581512 241.858444,491.193237 
	C244.205338,485.371368 246.583618,479.562195 249.295502,472.891968 
	C252.756699,481.155487 255.761826,488.487549 258.926300,495.750122 
	C259.545746,497.171783 260.722168,499.369812 261.744812,499.429047 
	C267.774353,499.778320 273.834381,499.601013 280.900665,499.601013 
	C274.777802,486.314331 269.299042,474.425354 263.486877,461.867462 
M227.769333,571.018433 
	C241.931778,571.046204 256.094238,571.090454 270.256683,571.093384 
	C275.768311,571.094543 276.446503,570.007141 274.243958,564.889954 
	C273.717529,563.666931 272.993591,562.519714 272.556366,561.269165 
	C271.096466,557.093567 268.462097,555.598694 263.852661,555.778442 
	C255.714462,556.095764 247.504562,555.993713 239.397049,555.263428 
	C231.867493,554.585205 226.406403,556.154236 224.488678,564.254700 
	C224.339172,564.886169 223.906845,565.448853 223.618408,566.049500 
	C221.973648,569.474487 223.066010,571.121826 227.769333,571.018433 
M294.754608,530.716187 
	C292.707916,526.346069 290.765717,521.921997 288.553009,517.637634 
	C287.859436,516.294617 286.486145,514.402344 285.341522,514.342712 
	C279.120483,514.018372 272.873688,514.188599 265.803986,514.188599 
	C268.969910,521.244080 272.197205,527.261902 274.388336,533.635986 
	C276.781952,540.598938 280.874207,542.691040 288.144318,542.234436 
	C299.941345,541.493469 299.973572,542.006775 294.754608,530.716187 
M228.807755,522.331604 
	C229.933929,519.845276 231.060104,517.358887 232.579697,514.003967 
	C225.846832,514.003967 220.080124,513.843750 214.335617,514.129700 
	C213.081131,514.192200 211.391724,515.590210 210.779480,516.812439 
	C207.363876,523.630981 204.215302,530.583374 200.981064,537.492676 
	C199.643326,540.350525 200.392319,541.999451 203.711182,542.029053 
	C207.693192,542.064514 211.718857,542.385986 215.639450,541.895203 
	C217.532959,541.658203 219.971878,540.266846 220.877274,538.669128 
	C223.731216,533.632690 225.976410,528.251404 228.807755,522.331604 
M236.867783,537.376526 
	C236.333557,538.692749 235.799332,540.008911 235.139084,541.635620 
	C244.713470,541.635620 253.704605,541.635620 263.752869,541.635620 
	C259.008636,531.857422 254.663223,522.901245 250.317825,513.945068 
	C249.730927,514.010986 249.144012,514.076904 248.557098,514.142822 
	C244.762543,521.658020 240.967987,529.173279 236.867783,537.376526 
M821.384216,449.186462 
	C818.781677,455.690887 819.561340,460.519928 823.724304,463.679749 
	C828.376648,467.211090 834.729736,466.425995 838.496765,461.854309 
	C842.106873,457.473022 841.534912,450.826355 837.216492,446.980011 
	C832.554993,442.828094 826.673218,443.421509 821.384216,449.186462 
M307.656281,560.744812 
	C306.445160,559.036072 305.344452,555.959167 304.004150,555.851074 
	C297.583282,555.332947 291.097565,555.618591 284.283600,555.618591 
	C289.106354,571.037659 289.106354,571.037476 303.259796,571.102051 
	C303.923035,571.105103 304.587311,571.142639 305.249329,571.117310 
	C310.252686,570.925842 311.523682,568.987305 309.554596,564.527832 
	C309.086517,563.467712 308.534637,562.444580 307.656281,560.744812 
M188.572800,569.123657 
	C189.168121,569.682861 189.750000,570.710388 190.360901,570.727905 
	C195.655441,570.880188 200.955414,570.878296 206.253082,570.836121 
	C206.830841,570.831543 207.689392,570.432678 207.935181,569.963806 
	C210.191666,565.658386 212.341553,561.296997 215.280396,555.441956 
	C207.531296,555.441956 201.465851,555.401733 195.402557,555.496948 
	C194.706833,555.507874 193.675415,556.111389 193.390182,556.717896 
	C191.579010,560.568970 189.933929,564.498169 188.572800,569.123657 
z"/>
<path fill="#F7F8F8" opacity="1.000000" stroke="none" 
	d="
M553.438843,550.769043 
	C556.986145,547.977356 560.484375,545.629150 563.302490,542.639832 
	C565.505188,540.303284 567.330383,539.645020 570.192017,541.113037 
	C582.601562,547.478943 583.342407,546.768982 573.046570,557.522583 
	C558.647461,572.561829 535.080261,576.108398 516.758972,566.819336 
	C497.111816,556.858032 487.669952,537.641052 491.145233,514.687805 
	C494.177612,494.659668 510.431946,478.318542 530.740662,474.881012 
	C561.572510,469.662231 588.665283,493.977020 586.991943,525.269714 
	C586.776672,529.295654 585.083435,530.712830 581.061584,530.688416 
	C558.900269,530.553650 536.737793,530.623352 514.575684,530.622864 
	C512.803711,530.622803 511.031677,530.622925 509.177124,530.622925 
	C512.647339,549.691223 533.620605,559.133301 553.438843,550.769043 
M527.870789,494.152924 
	C519.055359,497.687866 513.155396,503.903809 510.054230,513.205872 
	C529.407410,513.205872 548.340759,513.205872 567.404114,513.205872 
	C562.891235,496.579254 546.052917,488.394928 527.870789,494.152924 
z"/>
<path fill="#F8F9F8" opacity="1.000000" stroke="none" 
	d="
M723.599365,560.393616 
	C707.259033,545.326721 702.697815,522.904358 711.724304,503.076233 
	C720.606445,483.565247 740.624207,471.949249 761.454712,474.218384 
	C782.432678,476.503601 799.932983,491.925079 804.189636,512.606873 
	C805.449890,518.730225 805.330994,525.178223 805.457581,531.485168 
	C805.681458,542.638062 805.492920,553.799377 805.720703,564.952148 
	C805.805054,569.078796 804.094666,570.804077 800.146545,570.691162 
	C799.647339,570.676819 799.147400,570.686035 798.647766,570.689331 
	C788.487000,570.757263 788.487000,570.757385 787.021179,560.988037 
	C765.876404,575.305115 744.810364,576.490906 723.599365,560.393616 
M769.363464,494.914154 
	C756.091736,489.121124 741.780151,492.220367 732.614685,502.872284 
	C723.811340,513.103210 722.833435,528.774597 730.259399,540.614319 
	C737.152039,551.603760 751.357544,556.994019 764.384827,553.016541 
	C776.950195,549.180115 784.877686,540.515625 786.761292,527.506775 
	C788.847229,513.101257 782.689941,502.325928 769.363464,494.914154 
z"/>
<path fill="#F7F8F8" opacity="1.000000" stroke="none" 
	d="
M602.700195,503.681641 
	C612.265564,483.262146 631.443542,471.924194 651.868774,474.366211 
	C672.920898,476.883209 689.630310,492.365417 693.474243,513.125854 
	C694.106323,516.539734 694.218811,520.083618 694.245361,523.569946 
	C694.350525,537.396301 694.206787,551.225464 694.418640,565.049561 
	C694.487122,569.519836 692.586426,570.951599 688.435120,570.847900 
	C675.913696,570.535278 676.230042,572.779297 676.268799,558.779663 
	C676.305237,545.621155 676.587341,532.443176 675.989746,519.308838 
	C675.392822,506.190002 665.216064,495.390778 652.107605,492.693481 
	C639.353577,490.069183 626.501099,495.856934 620.907654,507.850128 
	C618.604736,512.788025 617.651489,518.701111 617.473083,524.215576 
	C617.042419,537.526489 617.438782,550.863831 617.483398,564.190552 
	C617.502991,570.035400 616.722351,570.827271 610.856506,570.778870 
	C597.661133,570.670105 599.076172,572.247192 599.184937,559.057068 
	C599.305725,544.407593 599.369812,529.753296 599.854248,515.114197 
	C599.977417,511.392822 601.600708,507.721100 602.700195,503.681641 
z"/>
<path fill="#F7F8F8" opacity="1.000000" stroke="none" 
	d="
M405.363953,544.418213 
	C396.129120,563.282227 377.673309,573.910034 358.562286,571.606079 
	C337.140289,569.023560 320.957245,554.859253 316.668213,534.542786 
	C315.785370,530.360840 315.820770,525.945190 315.775146,521.633728 
	C315.630615,507.978485 315.778809,494.319092 315.522003,480.666779 
	C315.446808,476.666656 317.010925,475.243652 320.727356,475.219879 
	C335.558167,475.125000 333.844299,474.022491 333.869598,487.702789 
	C333.893616,500.693237 333.691345,513.693237 334.122772,526.671326 
	C334.595673,540.897095 345.518646,552.320129 359.395508,553.869568 
	C373.473938,555.441528 386.936920,546.470093 390.495972,532.740173 
	C391.483063,528.932251 391.603302,524.828674 391.634857,520.856873 
	C391.740845,507.534241 391.744781,494.207947 391.527313,480.887299 
	C391.460144,476.773010 392.945251,475.095947 397.010223,475.191559 
	C411.793030,475.539459 409.696564,474.258179 409.549591,487.197083 
	C409.413391,499.186554 410.027161,511.203918 409.399017,523.161072 
	C409.030090,530.183411 406.881989,537.112244 405.363953,544.418213 
z"/>
<path fill="#F7F8F8" opacity="1.000000" stroke="none" 
	d="
M488.530457,480.439575 
	C487.631134,481.887787 486.797852,482.960175 486.252655,484.163116 
	C483.357147,490.551697 480.251465,493.746552 471.503540,492.598297 
	C455.223846,490.461456 441.703217,505.050171 441.471313,522.764221 
	C441.296875,536.086792 441.530182,549.416809 441.730103,562.741272 
	C441.844940,570.394165 441.567383,570.827942 434.123444,570.788757 
	C433.124176,570.783508 432.124908,570.776978 431.125641,570.775085 
	C423.960724,570.761414 423.589844,570.242615 423.662628,563.044922 
	C423.805786,548.887695 423.402435,534.714661 423.918823,520.573547 
	C425.041840,489.819275 451.927063,468.975739 482.027740,475.357971 
	C484.591370,475.901520 488.998657,475.084290 488.530457,480.439575 
z"/>
<path fill="#F8F9F8" opacity="1.000000" stroke="none" 
	d="
M821.097290,486.133789 
	C821.104248,483.988525 820.948242,482.299927 821.169983,480.662415 
	C821.340515,479.403168 821.863037,477.213440 822.440063,477.141998 
	C827.117310,476.562927 831.904297,475.884521 836.514771,476.435089 
	C837.689087,476.575317 839.107178,480.997375 839.131836,483.464905 
	C839.382019,508.462463 839.221985,533.464111 839.480774,558.461548 
	C839.628418,572.721436 839.422180,570.611938 827.075806,570.852539 
	C822.473022,570.942200 820.931213,569.065247 820.961060,564.610840 
	C821.109619,542.445374 821.067383,520.278687 821.091431,498.112396 
	C821.095642,494.279083 821.095276,490.445740 821.097290,486.133789 
z"/>
<path fill="#F7F8F8" opacity="1.000000" stroke="none" 
	d="
M263.653564,462.201904 
	C269.299042,474.425354 274.777802,486.314331 280.900665,499.601013 
	C273.834381,499.601013 267.774353,499.778320 261.744812,499.429047 
	C260.722168,499.369812 259.545746,497.171783 258.926300,495.750122 
	C255.761826,488.487549 252.756699,481.155487 249.295502,472.891968 
	C246.583618,479.562195 244.205338,485.371368 241.858444,491.193237 
	C237.670822,501.581512 239.131439,499.595673 229.020538,499.686157 
	C225.871857,499.714355 222.718201,499.446716 219.572556,499.230865 
	C219.171799,499.203369 218.805969,498.667328 218.204208,498.194061 
	C224.587830,484.346130 230.902420,470.467163 237.470901,456.709412 
	C238.056870,455.482056 240.234314,454.511169 241.772186,454.345490 
	C245.062744,453.991119 248.467499,454.606842 251.737167,454.167633 
	C258.059967,453.318329 261.944763,455.675079 263.653564,462.201904 
z"/>
<path fill="#3378A4" opacity="1.000000" stroke="none" 
	d="
M227.309845,571.016846 
	C223.066010,571.121826 221.973648,569.474487 223.618408,566.049500 
	C223.906845,565.448853 224.339172,564.886169 224.488678,564.254700 
	C226.406403,556.154236 231.867493,554.585205 239.397049,555.263428 
	C247.504562,555.993713 255.714462,556.095764 263.852661,555.778442 
	C268.462097,555.598694 271.096466,557.093567 272.556366,561.269165 
	C272.993591,562.519714 273.717529,563.666931 274.243958,564.889954 
	C276.446503,570.007141 275.768311,571.094543 270.256683,571.093384 
	C256.094238,571.090454 241.931778,571.046204 227.309845,571.016846 
z"/>
<path fill="#458F74" opacity="1.000000" stroke="none" 
	d="
M294.903381,531.062500 
	C299.973572,542.006775 299.941345,541.493469 288.144318,542.234436 
	C280.874207,542.691040 276.781952,540.598938 274.388336,533.635986 
	C272.197205,527.261902 268.969910,521.244080 265.803986,514.188599 
	C272.873688,514.188599 279.120483,514.018372 285.341522,514.342712 
	C286.486145,514.402344 287.859436,516.294617 288.553009,517.637634 
	C290.765717,521.921997 292.707916,526.346069 294.903381,531.062500 
z"/>
<path fill="#458F74" opacity="1.000000" stroke="none" 
	d="
M228.632477,522.667603 
	C225.976410,528.251404 223.731216,533.632690 220.877274,538.669128 
	C219.971878,540.266846 217.532959,541.658203 215.639450,541.895203 
	C211.718857,542.385986 207.693192,542.064514 203.711182,542.029053 
	C200.392319,541.999451 199.643326,540.350525 200.981064,537.492676 
	C204.215302,530.583374 207.363876,523.630981 210.779480,516.812439 
	C211.391724,515.590210 213.081131,514.192200 214.335617,514.129700 
	C220.080124,513.843750 225.846832,514.003967 232.579697,514.003967 
	C231.060104,517.358887 229.933929,519.845276 228.632477,522.667603 
z"/>
<path fill="#458F74" opacity="1.000000" stroke="none" 
	d="
M237.020615,537.032532 
	C240.967987,529.173279 244.762543,521.658020 248.557098,514.142822 
	C249.144012,514.076904 249.730927,514.010986 250.317825,513.945068 
	C254.663223,522.901245 259.008636,531.857422 263.752869,541.635620 
	C253.704605,541.635620 244.713470,541.635620 235.139084,541.635620 
	C235.799332,540.008911 236.333557,538.692749 237.020615,537.032532 
z"/>
<path fill="#458F74" opacity="1.000000" stroke="none" 
	d="
M821.598633,448.860291 
	C826.673218,443.421509 832.554993,442.828094 837.216492,446.980011 
	C841.534912,450.826355 842.106873,457.473022 838.496765,461.854309 
	C834.729736,466.425995 828.376648,467.211090 823.724304,463.679749 
	C819.561340,460.519928 818.781677,455.690887 821.598633,448.860291 
z"/>
<path fill="#3378A4" opacity="1.000000" stroke="none" 
	d="
M307.838806,561.074585 
	C308.534637,562.444580 309.086517,563.467712 309.554596,564.527832 
	C311.523682,568.987305 310.252686,570.925842 305.249329,571.117310 
	C304.587311,571.142639 303.923035,571.105103 303.259796,571.102051 
	C289.106354,571.037476 289.106354,571.037659 284.283600,555.618591 
	C291.097565,555.618591 297.583282,555.332947 304.004150,555.851074 
	C305.344452,555.959167 306.445160,559.036072 307.838806,561.074585 
z"/>
<path fill="#3378A4" opacity="1.000000" stroke="none" 
	d="
M188.403442,568.762634 
	C189.933929,564.498169 191.579010,560.568970 193.390182,556.717896 
	C193.675415,556.111389 194.706833,555.507874 195.402557,555.496948 
	C201.465851,555.401733 207.531296,555.441956 215.280396,555.441956 
	C212.341553,561.296997 210.191666,565.658386 207.935181,569.963806 
	C207.689392,570.432678 206.830841,570.831543 206.253082,570.836121 
	C200.955414,570.878296 195.655441,570.880188 190.360901,570.727905 
	C189.750000,570.710388 189.168121,569.682861 188.403442,568.762634 
z"/>
<path fill="#102522" opacity="1.000000" stroke="none" 
	d="
M528.247070,494.038574 
	C546.052917,488.394928 562.891235,496.579254 567.404114,513.205872 
	C548.340759,513.205872 529.407410,513.205872 510.054230,513.205872 
	C513.155396,503.903809 519.055359,497.687866 528.247070,494.038574 
z"/>
<path fill="#102522" opacity="1.000000" stroke="none" 
	d="
M769.712646,495.061218 
	C782.689941,502.325928 788.847229,513.101257 786.761292,527.506775 
	C784.877686,540.515625 776.950195,549.180115 764.384827,553.016541 
	C751.357544,556.994019 737.152039,551.603760 730.259399,540.614319 
	C722.833435,528.774597 723.811340,513.103210 732.614685,502.872284 
	C741.780151,492.220367 756.091736,489.121124 769.712646,495.061218 
z"/>
</svg>